ffmpeg started on 2025-06-03 at 20:12:16
Report written to "D:\Convert\FFMetrics\reports\psnr_report-6.txt"
Log level: 32
Command line:
ffmpeg -hide_banner -nostdin -i "G:\\\xc0\xed\xe8\xec\xe5\\\xce\xed\xe3\xee\xe8\xed\xe3\xe8\\!_36_\xce\xf1\xe5\xed\xfc_2024\\DreamCast\\\xc1\xe0\xf8\xed\xff \xc1\xee\xe3\xe0\\\xd2\xc2-2\\[DC] Kami no Tou - Ouji no Kikan - 23_Telegram_HEVC.mkv" -i "G:\\\xc0\xed\xe8\xec\xe5\\\xce\xed\xe3\xee\xe8\xed\xe3\xe8\\!_36_\xce\xf1\xe5\xed\xfc_2024\\DreamCast\\\xc1\xe0\xf8\xed\xff \xc1\xee\xe3\xe0\\\xd2\xc2-2\\[DC] Kami no Tou - Ouji no Kikan - 23_Telegram.mp4" -lavfi "[0:v]settb=AVTB,setpts=PTS-STARTPTS,format=pix_fmts=yuv420p10,fps=24000/1001,scale=1920:1080:flags=bicubic[main];[1:v]settb=AVTB,setpts=PTS-STARTPTS,format=pix_fmts=yuv420p,fps=24000/1001,scale=1920:1080:flags=bicubic[ref];[main][ref]psnr=eof_action=endall:stats_file='D\\:/Convert/FFMetrics/logs/psnr_logfile-6.txt'" -f null -
Input #0, matroska,webm, from 'G:\Аниме\Онгоинги\!_36_Осень_2024\DreamCast\Башня Бога\ТВ-2\[DC] Kami no Tou - Ouji no Kikan - 23_Telegram_HEVC.mkv':
  Metadata:
    COMPATIBLE_BRANDS: isomiso2avc1mp41
    MAJOR_BRAND     : isom
    MINOR_VERSION   : 512
    ENCODER         : Lavf61.7.100
  Duration: 00:23:49.42, start: -0.021000, bitrate: 1456 kb/s
  Stream #0:0: Video: hevc (Main 10), yuv420p10le(tv, bt709, progressive), 1920x1080 [SAR 1:1 DAR 16:9], 23.98 fps, 23.98 tbr, 1k tbn (default)
      Metadata:
        HANDLER_NAME    : VideoHandler
        VENDOR_ID       : [0][0][0][0]
        ENCODER         : Lavc61.19.100 libx265
        BPS             : 1260665
        DURATION        : 00:23:47.550708333
        NUMBER_OF_FRAMES: 34227
        NUMBER_OF_BYTES : 224957848
        _STATISTICS_WRITING_APP: mkvpropedit v66.0.0 ('Josie') 64-bit
        _STATISTICS_WRITING_DATE_UTC: 2025-05-30 06:22:48
        _STATISTICS_TAGS: BPS DURATION NUMBER_OF_FRAMES NUMBER_OF_BYTES
  Stream #0:1: Audio: aac (LC), 48000 Hz, stereo, fltp (default)
      Metadata:
        HANDLER_NAME    : SoundHandler
        VENDOR_ID       : [0][0][0][0]
        ENCODER         : Lavc61.19.100 aac
        BPS             : 193461
        DURATION        : 00:23:49.418000000
        NUMBER_OF_FRAMES: 67005
        NUMBER_OF_BYTES : 34567254
        _STATISTICS_WRITING_APP: mkvpropedit v66.0.0 ('Josie') 64-bit
        _STATISTICS_WRITING_DATE_UTC: 2025-05-30 06:22:48
        _STATISTICS_TAGS: BPS DURATION NUMBER_OF_FRAMES NUMBER_OF_BYTES
Input #1, mov,mp4,m4a,3gp,3g2,mj2, from 'G:\Аниме\Онгоинги\!_36_Осень_2024\DreamCast\Башня Бога\ТВ-2\[DC] Kami no Tou - Ouji no Kikan - 23_Telegram.mp4':
  Metadata:
    major_brand     : isom
    minor_version   : 512
    compatible_brands: isomiso2avc1mp41
    encoder         : Lavf61.1.100
  Duration: 00:23:49.39, start: 0.000000, bitrate: 3748 kb/s
  Stream #1:0[0x1](und): Video: h264 (High) (avc1 / 0x31637661), yuv420p(tv, bt709, progressive), 1920x1080 [SAR 1:1 DAR 16:9], 3605 kb/s, 23.98 fps, 23.98 tbr, 24k tbn (default)
      Metadata:
        handler_name    : VideoHandler
        vendor_id       : [0][0][0][0]
        encoder         : Lavc61.3.100 h264_qsv
  Stream #1:1[0x2](und): Audio: aac (HE-AACv2) (mp4a / 0x6134706D), 48000 Hz, stereo, fltp, 144 kb/s (default)
      Metadata:
        handler_name    : SoundHandler
        vendor_id       : [0][0][0][0]
Stream mapping:
  Stream #0:0 (hevc) -> settb:default
  Stream #1:0 (h264) -> settb:default
  psnr:default -> Stream #0:0 (wrapped_avframe)
  Stream #0:1 -> #0:1 (aac (native) -> pcm_s16le (native))
Output #0, null, to 'pipe:':
  Metadata:
    COMPATIBLE_BRANDS: isomiso2avc1mp41
    MAJOR_BRAND     : isom
    MINOR_VERSION   : 512
    encoder         : Lavf61.7.100
  Stream #0:0: Video: wrapped_avframe, yuv420p10le(tv, bt709, progressive), 1920x1080 [SAR 1:1 DAR 16:9], q=2-31, 200 kb/s, 23.98 fps, 23.98 tbn
      Metadata:
        encoder         : Lavc61.19.100 wrapped_avframe
  Stream #0:1: Audio: pcm_s16le, 48000 Hz, stereo, s16, 1536 kb/s (default)
      Metadata:
        HANDLER_NAME    : SoundHandler
        VENDOR_ID       : [0][0][0][0]
        _STATISTICS_TAGS: BPS DURATION NUMBER_OF_FRAMES NUMBER_OF_BYTES
        BPS             : 193461
        DURATION        : 00:23:49.418000000
        NUMBER_OF_FRAMES: 67005
        NUMBER_OF_BYTES : 34567254
        _STATISTICS_WRITING_APP: mkvpropedit v66.0.0 ('Josie') 64-bit
        _STATISTICS_WRITING_DATE_UTC: 2025-05-30 06:22:48
        encoder         : Lavc61.19.100 pcm_s16le
frame=  179 fps=0.0 q=-0.0 size=N/A time=00:00:07.46 bitrate=N/A speed=14.3x    frame=  427 fps=415 q=-0.0 size=N/A time=00:00:17.80 bitrate=N/A speed=17.3x    frame=  690 fps=445 q=-0.0 size=N/A time=00:00:28.77 bitrate=N/A speed=18.5x    frame=  938 fps=454 q=-0.0 size=N/A time=00:00:39.12 bitrate=N/A speed=18.9x    frame= 1143 fps=443 q=-0.0 size=N/A time=00:00:47.67 bitrate=N/A speed=18.5x    frame= 1351 fps=436 q=-0.0 size=N/A time=00:00:56.34 bitrate=N/A speed=18.2x    frame= 1646 fps=455 q=-0.0 size=N/A time=00:01:08.65 bitrate=N/A speed=  19x    frame= 1910 fps=463 q=-0.0 size=N/A time=00:01:19.66 bitrate=N/A speed=19.3x    frame= 2123 fps=457 q=-0.0 size=N/A time=00:01:28.54 bitrate=N/A speed=19.1x    frame= 2370 fps=459 q=-0.0 size=N/A time=00:01:38.84 bitrate=N/A speed=19.1x    frame= 2589 fps=456 q=-0.0 size=N/A time=00:01:47.98 bitrate=N/A speed=  19x    frame= 2825 fps=456 q=-0.0 size=N/A time=00:01:57.82 bitrate=N/A speed=  19x    frame= 3059 fps=456 q=-0.0 size=N/A time=00:02:07.58 bitrate=N/A speed=  19x    frame= 3329 fps=461 q=-0.0 size=N/A time=00:02:18.84 bitrate=N/A speed=19.2x    frame= 3550 fps=459 q=-0.0 size=N/A time=00:02:28.06 bitrate=N/A speed=19.1x    frame= 3755 fps=455 q=-0.0 size=N/A time=00:02:36.61 bitrate=N/A speed=  19x    frame= 3968 fps=453 q=-0.0 size=N/A time=00:02:45.49 bitrate=N/A speed=18.9x    frame= 4215 fps=454 q=-0.0 size=N/A time=00:02:55.80 bitrate=N/A speed=18.9x    frame= 4460 fps=455 q=-0.0 size=N/A time=00:03:06.01 bitrate=N/A speed=  19x    frame= 4734 fps=459 q=-0.0 size=N/A time=00:03:17.44 bitrate=N/A speed=19.1x    frame= 5013 fps=462 q=-0.0 size=N/A time=00:03:29.08 bitrate=N/A speed=19.3x    frame= 5302 fps=467 q=-0.0 size=N/A time=00:03:41.13 bitrate=N/A speed=19.5x    frame= 5586 fps=471 q=-0.0 size=N/A time=00:03:52.98 bitrate=N/A speed=19.6x    frame= 5820 fps=470 q=-0.0 size=N/A time=00:04:02.74 bitrate=N/A speed=19.6x    frame= 6090 fps=472 q=-0.0 size=N/A time=00:04:14.00 bitrate=N/A speed=19.7x    frame= 6357 fps=474 q=-0.0 size=N/A time=00:04:25.13 bitrate=N/A speed=19.8x    frame= 6658 fps=478 q=-0.0 size=N/A time=00:04:37.69 bitrate=N/A speed=19.9x    frame= 6858 fps=475 q=-0.0 size=N/A time=00:04:46.03 bitrate=N/A speed=19.8x    frame= 7060 fps=472 q=-0.0 size=N/A time=00:04:54.46 bitrate=N/A speed=19.7x    frame= 7241 fps=468 q=-0.0 size=N/A time=00:05:02.01 bitrate=N/A speed=19.5x    frame= 7539 fps=472 q=-0.0 size=N/A time=00:05:14.43 bitrate=N/A speed=19.7x    frame= 7814 fps=473 q=-0.0 size=N/A time=00:05:25.90 bitrate=N/A speed=19.7x    frame= 8080 fps=475 q=-0.0 size=N/A time=00:05:37.00 bitrate=N/A speed=19.8x    frame= 8374 fps=477 q=-0.0 size=N/A time=00:05:49.26 bitrate=N/A speed=19.9x    frame= 8672 fps=480 q=-0.0 size=N/A time=00:06:01.69 bitrate=N/A speed=  20x    frame= 8960 fps=482 q=-0.0 size=N/A time=00:06:13.70 bitrate=N/A speed=20.1x    frame= 9238 fps=484 q=-0.0 size=N/A time=00:06:25.30 bitrate=N/A speed=20.2x    frame= 9514 fps=486 q=-0.0 size=N/A time=00:06:36.81 bitrate=N/A speed=20.3x    frame= 9820 fps=488 q=-0.0 size=N/A time=00:06:49.57 bitrate=N/A speed=20.4x    frame=10055 fps=487 q=-0.0 size=N/A time=00:06:59.37 bitrate=N/A speed=20.3x    frame=10336 fps=489 q=-0.0 size=N/A time=00:07:11.09 bitrate=N/A speed=20.4x    frame=10579 fps=488 q=-0.0 size=N/A time=00:07:21.23 bitrate=N/A speed=20.4x    frame=10824 fps=488 q=-0.0 size=N/A time=00:07:31.45 bitrate=N/A speed=20.4x    frame=11089 fps=489 q=-0.0 size=N/A time=00:07:42.50 bitrate=N/A speed=20.4x    frame=11364 fps=490 q=-0.0 size=N/A time=00:07:53.97 bitrate=N/A speed=20.4x    frame=11636 fps=490 q=-0.0 size=N/A time=00:08:05.31 bitrate=N/A speed=20.4x    frame=11907 fps=491 q=-0.0 size=N/A time=00:08:16.62 bitrate=N/A speed=20.5x    frame=12174 fps=491 q=-0.0 size=N/A time=00:08:27.75 bitrate=N/A speed=20.5x    frame=12445 fps=492 q=-0.0 size=N/A time=00:08:39.06 bitrate=N/A speed=20.5x    frame=12734 fps=493 q=-0.0 size=N/A time=00:08:51.11 bitrate=N/A speed=20.6x    frame=12964 fps=492 q=-0.0 size=N/A time=00:09:00.70 bitrate=N/A speed=20.5x    frame=13229 fps=493 q=-0.0 size=N/A time=00:09:11.75 bitrate=N/A speed=20.6x    frame=13509 fps=494 q=-0.0 size=N/A time=00:09:23.43 bitrate=N/A speed=20.6x    frame=13798 fps=495 q=-0.0 size=N/A time=00:09:35.49 bitrate=N/A speed=20.6x    frame=14043 fps=495 q=-0.0 size=N/A time=00:09:45.71 bitrate=N/A speed=20.6x    frame=14281 fps=494 q=-0.0 size=N/A time=00:09:55.63 bitrate=N/A speed=20.6x    frame=14517 fps=493 q=-0.0 size=N/A time=00:10:05.47 bitrate=N/A speed=20.6x    frame=14810 fps=495 q=-0.0 size=N/A time=00:10:17.70 bitrate=N/A speed=20.6x    frame=15074 fps=495 q=-0.0 size=N/A time=00:10:28.71 bitrate=N/A speed=20.6x    frame=15287 fps=493 q=-0.0 size=N/A time=00:10:37.59 bitrate=N/A speed=20.6x    frame=15525 fps=493 q=-0.0 size=N/A time=00:10:47.52 bitrate=N/A speed=20.6x    frame=15738 fps=492 q=-0.0 size=N/A time=00:10:56.40 bitrate=N/A speed=20.5x    frame=15981 fps=491 q=-0.0 size=N/A time=00:11:06.54 bitrate=N/A speed=20.5x    frame=16206 fps=490 q=-0.0 size=N/A time=00:11:15.92 bitrate=N/A speed=20.5x    frame=16419 fps=489 q=-0.0 size=N/A time=00:11:24.80 bitrate=N/A speed=20.4x    frame=16638 fps=488 q=-0.0 size=N/A time=00:11:33.94 bitrate=N/A speed=20.4x    frame=16836 fps=487 q=-0.0 size=N/A time=00:11:42.20 bitrate=N/A speed=20.3x    frame=17062 fps=486 q=-0.0 size=N/A time=00:11:51.62 bitrate=N/A speed=20.3x    frame=17349 fps=487 q=-0.0 size=N/A time=00:12:03.59 bitrate=N/A speed=20.3x    frame=17563 fps=486 q=-0.0 size=N/A time=00:12:12.52 bitrate=N/A speed=20.3x    frame=17838 fps=487 q=-0.0 size=N/A time=00:12:23.99 bitrate=N/A speed=20.3x    frame=18109 fps=487 q=-0.0 size=N/A time=00:12:35.29 bitrate=N/A speed=20.3x    frame=18310 fps=486 q=-0.0 size=N/A time=00:12:43.67 bitrate=N/A speed=20.3x    frame=18559 fps=486 q=-0.0 size=N/A time=00:12:54.06 bitrate=N/A speed=20.3x    frame=18849 fps=487 q=-0.0 size=N/A time=00:13:06.16 bitrate=N/A speed=20.3x    frame=19134 fps=488 q=-0.0 size=N/A time=00:13:18.04 bitrate=N/A speed=20.3x    frame=19349 fps=487 q=-0.0 size=N/A time=00:13:27.01 bitrate=N/A speed=20.3x    frame=19585 fps=487 q=-0.0 size=N/A time=00:13:36.85 bitrate=N/A speed=20.3x    frame=19812 fps=486 q=-0.0 size=N/A time=00:13:46.32 bitrate=N/A speed=20.3x    frame=20033 fps=485 q=-0.0 size=N/A time=00:13:55.54 bitrate=N/A speed=20.2x    frame=20245 fps=484 q=-0.0 size=N/A time=00:14:04.38 bitrate=N/A speed=20.2x    frame=20502 fps=484 q=-0.0 size=N/A time=00:14:15.10 bitrate=N/A speed=20.2x    frame=20771 fps=485 q=-0.0 size=N/A time=00:14:26.32 bitrate=N/A speed=20.2x    frame=21023 fps=485 q=-0.0 size=N/A time=00:14:36.83 bitrate=N/A speed=20.2x    frame=21279 fps=485 q=-0.0 size=N/A time=00:14:47.51 bitrate=N/A speed=20.2x    frame=21509 fps=485 q=-0.0 size=N/A time=00:14:57.10 bitrate=N/A speed=20.2x    frame=21707 fps=483 q=-0.0 size=N/A time=00:15:05.36 bitrate=N/A speed=20.2x    frame=21928 fps=483 q=-0.0 size=N/A time=00:15:14.58 bitrate=N/A speed=20.1x    frame=22200 fps=483 q=-0.0 size=N/A time=00:15:25.92 bitrate=N/A speed=20.2x    frame=22486 fps=484 q=-0.0 size=N/A time=00:15:37.85 bitrate=N/A speed=20.2x    frame=22763 fps=485 q=-0.0 size=N/A time=00:15:49.40 bitrate=N/A speed=20.2x    frame=23055 fps=486 q=-0.0 size=N/A time=00:16:01.58 bitrate=N/A speed=20.3x    frame=23348 fps=486 q=-0.0 size=N/A time=00:16:13.80 bitrate=N/A speed=20.3x    frame=23610 fps=487 q=-0.0 size=N/A time=00:16:24.73 bitrate=N/A speed=20.3x    frame=23859 fps=487 q=-0.0 size=N/A time=00:16:35.11 bitrate=N/A speed=20.3x    frame=24120 fps=487 q=-0.0 size=N/A time=00:16:46.00 bitrate=N/A speed=20.3x    frame=24342 fps=486 q=-0.0 size=N/A time=00:16:55.26 bitrate=N/A speed=20.3x    frame=24531 fps=485 q=-0.0 size=N/A time=00:17:03.14 bitrate=N/A speed=20.2x    frame=24729 fps=484 q=-0.0 size=N/A time=00:17:11.40 bitrate=N/A speed=20.2x    frame=24908 fps=483 q=-0.0 size=N/A time=00:17:18.87 bitrate=N/A speed=20.1x    frame=25149 fps=483 q=-0.0 size=N/A time=00:17:28.92 bitrate=N/A speed=20.1x    frame=25368 fps=482 q=-0.0 size=N/A time=00:17:38.05 bitrate=N/A speed=20.1x    frame=25595 fps=482 q=-0.0 size=N/A time=00:17:47.52 bitrate=N/A speed=20.1x    frame=25813 fps=481 q=-0.0 size=N/A time=00:17:56.61 bitrate=N/A speed=20.1x    frame=26094 fps=482 q=-0.0 size=N/A time=00:18:08.33 bitrate=N/A speed=20.1x    frame=26325 fps=481 q=-0.0 size=N/A time=00:18:17.97 bitrate=N/A speed=20.1x    frame=26579 fps=481 q=-0.0 size=N/A time=00:18:28.56 bitrate=N/A speed=20.1x    frame=26805 fps=481 q=-0.0 size=N/A time=00:18:37.99 bitrate=N/A speed=20.1x    frame=27016 fps=480 q=-0.0 size=N/A time=00:18:46.79 bitrate=N/A speed=  20x    frame=27277 fps=481 q=-0.0 size=N/A time=00:18:57.67 bitrate=N/A speed=  20x    frame=27557 fps=481 q=-0.0 size=N/A time=00:19:09.35 bitrate=N/A speed=20.1x    frame=27828 fps=482 q=-0.0 size=N/A time=00:19:20.65 bitrate=N/A speed=20.1x    frame=28091 fps=482 q=-0.0 size=N/A time=00:19:31.62 bitrate=N/A speed=20.1x    frame=28352 fps=482 q=-0.0 size=N/A time=00:19:42.51 bitrate=N/A speed=20.1x    frame=28639 fps=483 q=-0.0 size=N/A time=00:19:54.48 bitrate=N/A speed=20.1x    frame=28915 fps=483 q=-0.0 size=N/A time=00:20:05.99 bitrate=N/A speed=20.1x    frame=29143 fps=483 q=-0.0 size=N/A time=00:20:15.50 bitrate=N/A speed=20.1x    frame=29370 fps=482 q=-0.0 size=N/A time=00:20:24.97 bitrate=N/A speed=20.1x    frame=29565 fps=481 q=-0.0 size=N/A time=00:20:33.10 bitrate=N/A speed=20.1x    frame=29817 fps=482 q=-0.0 size=N/A time=00:20:43.61 bitrate=N/A speed=20.1x    frame=30088 fps=482 q=-0.0 size=N/A time=00:20:54.92 bitrate=N/A speed=20.1x    frame=30364 fps=482 q=-0.0 size=N/A time=00:21:06.43 bitrate=N/A speed=20.1x    frame=30644 fps=483 q=-0.0 size=N/A time=00:21:18.11 bitrate=N/A speed=20.1x    frame=30912 fps=483 q=-0.0 size=N/A time=00:21:29.28 bitrate=N/A speed=20.2x    frame=31195 fps=484 q=-0.0 size=N/A time=00:21:41.09 bitrate=N/A speed=20.2x    frame=31481 fps=484 q=-0.0 size=N/A time=00:21:53.02 bitrate=N/A speed=20.2x    frame=31766 fps=485 q=-0.0 size=N/A time=00:22:04.90 bitrate=N/A speed=20.2x    frame=32035 fps=485 q=-0.0 size=N/A time=00:22:16.12 bitrate=N/A speed=20.2x    frame=32225 fps=484 q=-0.0 size=N/A time=00:22:24.05 bitrate=N/A speed=20.2x    frame=32377 fps=483 q=-0.0 size=N/A time=00:22:30.39 bitrate=N/A speed=20.1x    frame=32534 fps=481 q=-0.0 size=N/A time=00:22:36.93 bitrate=N/A speed=20.1x    frame=32688 fps=480 q=-0.0 size=N/A time=00:22:43.36 bitrate=N/A speed=  20x    frame=32848 fps=479 q=-0.0 size=N/A time=00:22:50.03 bitrate=N/A speed=  20x    frame=33040 fps=478 q=-0.0 size=N/A time=00:22:58.04 bitrate=N/A speed=19.9x    frame=33213 fps=477 q=-0.0 size=N/A time=00:23:05.25 bitrate=N/A speed=19.9x    frame=33376 fps=476 q=-0.0 size=N/A time=00:23:12.05 bitrate=N/A speed=19.8x    frame=33529 fps=474 q=-0.0 size=N/A time=00:23:18.43 bitrate=N/A speed=19.8x    frame=33685 fps=473 q=-0.0 size=N/A time=00:23:24.94 bitrate=N/A speed=19.7x    frame=33795 fps=471 q=-0.0 size=N/A time=00:23:29.53 bitrate=N/A speed=19.7x    frame=33966 fps=470 q=-0.0 size=N/A time=00:23:36.66 bitrate=N/A speed=19.6x    frame=34188 fps=470 q=-0.0 size=N/A time=00:23:45.92 bitrate=N/A speed=19.6x    [Parsed_psnr_10 @ 000002aee3e678c0] PSNR y:48.886945 u:50.890446 v:51.093244 average:49.481668 min:38.501887 max:inf
[out#0/null @ 000002aee1a25880] video:14707KiB audio:268020KiB subtitle:0KiB other streams:0KiB global headers:0KiB muxing overhead: unknown
frame=34227 fps=470 q=-0.0 Lsize=N/A time=00:23:47.55 bitrate=N/A speed=19.6x    
